<?xml version="1.0" encoding="iso-8859-1"?>
<!-- Generator: Adobe Illustrator 19.0.0, SVG Export Plug-In . SVG Version: 6.00 Build 0)  -->
<svg version="1.1" id="Layer_1" xmlns="http://www.w3.org/2000/svg" xmlns:xlink="http://www.w3.org/1999/xlink" x="0px" y="0px"
	 viewBox="0 0 512 512" style="enable-background:new 0 0 512 512;" xml:space="preserve">
<g>
	<g>
		<path d="M501.333,0H352c-5.891,0-10.667,4.776-10.667,10.667c0,5.891,4.776,10.667,10.667,10.667h121.835l-172.8,173.461
			c-32.999-29.282-75.584-45.455-119.701-45.461C81.344,149.333,0,230.677,0,330.667S81.344,512,181.333,512
			s181.333-81.344,181.333-181.333c-0.017-44.65-16.591-87.707-46.517-120.843L490.667,34.656V160
			c0,5.891,4.776,10.667,10.667,10.667S512,165.891,512,160V10.667C512,4.776,507.224,0,501.333,0z M341.333,330.667
			c0,88.224-71.776,160-160,160s-160-71.776-160-160s71.776-160,160-160S341.333,242.443,341.333,330.667z"/>
	</g>
</g>
<g>
</g>
<g>
</g>
<g>
</g>
<g>
</g>
<g>
</g>
<g>
</g>
<g>
</g>
<g>
</g>
<g>
</g>
<g>
</g>
<g>
</g>
<g>
</g>
<g>
</g>
<g>
</g>
<g>
</g>
</svg>
